<?xml version="1.0" standalone="no"?>
<!DOCTYPE svg PUBLIC "-//W3C//DTD SVG 20010904//EN"
 "http://www.w3.org/TR/2001/REC-SVG-20010904/DTD/svg10.dtd">
<svg version="1.0" xmlns="http://www.w3.org/2000/svg"
 width="196.000000pt" height="62.000000pt" viewBox="0 0 196.000000 62.000000"
 preserveAspectRatio="xMidYMid meet">

<g transform="translate(0.000000,62.000000) scale(0.100000,-0.100000)"
fill="#000000" stroke="none">
<path d="M1592 484 c-6 -31 -10 -60 -8 -63 3 -4 48 -22 100 -41 53 -19 95 -39
93 -44 -2 -6 -50 -25 -108 -42 -57 -18 -110 -37 -118 -42 -13 -7 -44 -112 -37
-120 2 -1 84 27 184 64 l180 66 17 70 c10 39 14 73 9 78 -13 11 -275 130 -289
130 -6 0 -16 -25 -23 -56z"/>
<path d="M854 505 c4 -14 2 -44 -4 -65 -10 -36 -13 -40 -36 -34 -29 7 -52 -15
-31 -28 45 -29 112 11 122 72 4 22 11 42 16 46 5 3 9 12 9 20 0 10 -12 14 -41
14 -39 0 -41 -1 -35 -25z"/>
<path d="M1100 498 c-1 -18 -7 -51 -15 -73 -20 -54 -19 -57 13 -53 23 3 28 8
32 42 6 45 30 63 30 22 0 -13 -4 -28 -10 -31 -21 -13 -10 -35 19 -35 27 0 29
3 34 52 8 62 -2 76 -39 60 -25 -12 -26 -12 -19 18 6 27 4 30 -19 30 -23 0 -26
-4 -26 -32z"/>
<path d="M258 451 l-177 -66 -15 -69 c-9 -38 -16 -74 -16 -80 1 -9 292 -146
312 -146 7 0 16 29 32 102 7 29 21 21 -159 89 -30 11 -53 24 -51 28 3 4 61 25
131 46 125 39 125 39 134 74 22 89 22 91 4 90 -10 -1 -98 -31 -195 -68z"/>
<path d="M965 465 c-27 -26 -32 -64 -13 -83 32 -32 108 8 108 57 0 54 -53 69
-95 26z m55 -28 c0 -24 -19 -42 -31 -30 -8 8 -8 16 1 32 11 22 30 20 30 -2z"/>
<path d="M1257 483 c-4 -3 -7 -21 -7 -39 0 -18 -4 -36 -10 -39 -22 -14 -10
-35 20 -35 27 0 30 3 30 34 0 18 6 39 14 45 23 19 29 -5 12 -41 -9 -17 -16
-33 -16 -35 0 -7 60 -3 61 5 0 4 2 28 5 55 5 53 -8 67 -45 47 -14 -7 -21 -7
-21 0 0 11 -33 14 -43 3z"/>
<path d="M507 234 c-3 -31 -11 -62 -16 -67 -20 -20 -12 -37 18 -37 27 0 29 3
29 41 1 63 19 70 27 10 4 -28 12 -51 18 -51 7 0 25 24 42 53 20 36 30 47 33
35 2 -10 -4 -32 -12 -50 -9 -17 -16 -33 -16 -35 0 -7 70 -3 71 5 4 61 12 98
24 123 l16 29 -45 0 c-41 0 -47 -3 -62 -31 -12 -25 -18 -29 -25 -18 -5 8 -9
22 -9 32 0 13 -9 17 -44 17 l-43 0 -6 -56z"/>
<path d="M770 275 c0 -8 6 -15 14 -15 8 0 16 7 20 15 4 10 -1 15 -14 15 -11 0
-20 -7 -20 -15z"/>
<path d="M966 228 c-3 -34 -11 -67 -16 -72 -17 -17 -11 -26 20 -26 28 0 30 3
30 35 0 23 6 38 15 42 25 9 27 -2 11 -41 l-15 -36 30 0 c21 0 29 5 29 18 0 9
3 35 7 56 l6 39 -37 -6 c-37 -6 -37 -6 -31 24 6 26 4 29 -18 29 -22 0 -25 -5
-31 -62z"/>
<path d="M1401 273 c4 -28 -11 -112 -22 -118 -18 -12 -8 -25 20 -25 27 0 29 3
35 53 3 28 9 64 12 80 6 24 4 27 -20 27 -20 0 -27 -5 -25 -17z"/>
<path d="M750 206 c0 -19 -4 -38 -10 -41 -22 -14 -10 -35 20 -35 25 0 30 4 28
23 -1 12 2 37 6 55 7 30 6 32 -18 32 -23 0 -26 -4 -26 -34z"/>
<path d="M848 223 c-20 -24 -27 -57 -16 -77 12 -22 88 -23 88 -1 0 9 -10 15
-26 15 -21 0 -25 4 -22 23 2 18 8 22 36 19 26 -2 32 2 32 18 0 17 -7 20 -38
20 -25 0 -45 -6 -54 -17z"/>
<path d="M1127 226 c-5 -12 1 -16 23 -16 17 0 30 -4 30 -10 0 -5 -11 -10 -24
-10 -24 0 -60 -36 -51 -50 3 -4 29 -8 59 -8 l54 0 -2 51 -1 52 -41 3 c-30 2
-43 -1 -47 -12z m51 -58 c-6 -18 -28 -21 -28 -4 0 9 7 16 16 16 9 0 14 -5 12
-12z"/>
<path d="M1270 220 c-29 -29 -27 -78 4 -86 33 -8 69 -2 74 14 2 8 -7 12 -27
12 -17 0 -31 5 -31 10 0 6 15 10 34 10 39 0 50 11 41 40 -9 27 -68 27 -95 0z
m60 -10 c0 -5 -7 -10 -15 -10 -8 0 -15 5 -15 10 0 6 7 10 15 10 8 0 15 -4 15
-10z"/>
</g>
</svg>
